<svg width="169" height="159" viewBox="0 0 169 159" fill="none" xmlns="http://www.w3.org/2000/svg">
<path d="M84.27 79.5C76.5452 79.5 69.9324 76.9052 64.4314 71.7156C58.9304 66.526 56.18 60.2875 56.18 53C56.18 45.7125 58.9304 39.474 64.4314 34.2844C69.9324 29.0948 76.5452 26.5 84.27 26.5C91.9947 26.5 98.6076 29.0948 104.109 34.2844C109.609 39.474 112.36 45.7125 112.36 53C112.36 60.2875 109.609 66.526 104.109 71.7156C98.6076 76.9052 91.9947 79.5 84.27 79.5ZM28.09 132.5V113.95C28.09 110.196 29.1141 106.745 31.1623 103.598C33.2105 100.452 35.9318 98.05 39.326 96.3938C46.5826 92.9708 53.9562 90.4036 61.4468 88.6922C68.9375 86.9807 76.5452 86.125 84.27 86.125C91.9947 86.125 99.6024 86.9807 107.093 88.6922C114.584 90.4036 121.957 92.9708 129.214 96.3938C132.608 98.05 135.329 100.452 137.378 103.598C139.426 106.745 140.45 110.196 140.45 113.95V132.5H28.09ZM42.135 119.25H126.405V113.95C126.405 112.735 126.083 111.631 125.439 110.637C124.796 109.644 123.947 108.871 122.894 108.319C116.573 105.338 110.195 103.102 103.757 101.611C97.3201 100.12 90.8243 99.375 84.27 99.375C77.7156 99.375 71.2198 100.12 64.7825 101.611C58.3452 103.102 51.9665 105.338 45.6462 108.319C44.5928 108.871 43.7443 109.644 43.1006 110.637C42.4568 111.631 42.135 112.735 42.135 113.95V119.25ZM84.27 66.25C88.1323 66.25 91.4388 64.9526 94.1892 62.3578C96.9397 59.763 98.315 56.6437 98.315 53C98.315 49.3563 96.9397 46.237 94.1892 43.6422C91.4388 41.0474 88.1323 39.75 84.27 39.75C80.4076 39.75 77.1012 41.0474 74.3507 43.6422C71.6002 46.237 70.225 49.3563 70.225 53C70.225 56.6437 71.6002 59.763 74.3507 62.3578C77.1012 64.9526 80.4076 66.25 84.27 66.25Z" fill="#1D1B20"/>
</svg>
